<svg viewBox="-14 0 512 512" fill="currentColor" xmlns="http://www.w3.org/2000/svg"><path d="m189.082031 41.832031c4.140625 0 7.5-3.355469 7.5-7.5 0-4.140625-3.359375-7.5-7.5-7.5h-39.164062c-4.140625 0-7.5 3.359375-7.5 7.5 0 4.144531 3.359375 7.5 7.5 7.5zm0 0"/><path d="m352.453125 287.382812c.097656.296876.203125.585938.332031.867188 9.648438 25.453125 34.269532 43.605469 63.0625 43.605469 28.8125 0 53.449219-18.171875 63.082032-43.652344.121093-.261719.21875-.53125.308593-.804687 2.605469-7.171876 4.03125-14.90625 4.03125-22.964844 0-22.03125-10.589843-42.378906-28.472656-55.03125-4.90625-16.882813-20.503906-29.261719-38.949219-29.261719-18.441406 0-34.039062 12.378906-38.945312 29.257813-13.429688 9.519531-22.761719 23.449218-26.5625 39.101562h-31.757813v-23.957031c0-4.140625-3.359375-7.5-7.5-7.5s-7.5 3.359375-7.5 7.5v23.957031h-61.082031c-.015625 0-.03125.003906-.046875.003906-2.1875-17.914062-10.894531-34.375-24.464844-46.285156l85.59375-51.363281v41.027343c0 4.140626 3.355469 7.5 7.5 7.5 4.140625 0 7.5-3.359374 7.5-7.5v-23.382812h2.917969c9.648438 0 17.5-7.851562 17.5-17.5v-21.398438l18.710938-11.226562c11.726562 19.925781 33.390624 33.339844 58.136718 33.339844 28.8125 0 53.449219-18.171875 63.082032-43.652344.117187-.261719.21875-.53125.308593-.804688 2.605469-7.171874 4.03125-14.90625 4.03125-22.964843 0-21.96875-10.605469-42.390625-28.480469-55.042969-4.90625-16.878906-20.5-29.25-38.941406-29.25s-34.039062 12.378906-38.945312 29.257812c-17.855469 12.652344-28.472656 33.109376-28.472656 55.035157 0 7.066406 1.097656 13.878906 3.121093 20.285156l-12.550781 7.53125v-20.109375c0-9.648438-7.851562-17.5-17.5-17.5h-2.917969v-47c0-15.164062-12.335937-27.5-27.5-27.5h-184.992187c-4.140625 0-7.5 3.359375-7.5 7.5s3.359375 7.5 7.5 7.5h184.992187c6.890625 0 12.5 5.605469 12.5 12.5v23h-268.164062v-23c0-6.894531 5.605469-12.5 12.5-12.5h25.511719c4.140624 0 7.5-3.359375 7.5-7.5s-3.359376-7.5-7.5-7.5h-25.511719c-15.164063 0-27.5 12.335938-27.5 27.5v47h-2.917969c-9.648438 0-17.5 7.851562-17.5 17.5v79c0 9.648438 7.851562 17.5 17.5 17.5h2.917969v17h-2.917969c-9.648438 0-17.5 7.851562-17.5 17.5v19c0 9.648438 7.851562 17.5 17.5 17.5h2.917969v8h-2.917969c-9.648438 0-17.5 7.851562-17.5 17.5v19c0 9.648438 7.851562 17.5 17.5 17.5h2.917969v163c0 15.164062 12.335937 27.5 27.5 27.5h243.164062c15.164063 0 27.5-12.335938 27.5-27.5v-96.863281l38.828125 23.300781c-5.800781 10.082031-8.980468 21.640625-8.980468 33.636719 0 8.054687 1.421874 15.78125 4.023437 22.949219.097656.296874.203125.585937.332031.871093 9.648438 25.453125 34.269532 43.601563 63.066406 43.601563 28.800782 0 53.429688-18.160156 63.070313-43.625.125-.269532.226563-.550782.320313-.835938 2.605468-7.167968 4.03125-14.898437 4.03125-22.960937 0-21.96875-10.609376-42.386719-28.480469-55.039063-4.910157-16.878906-20.503907-29.25-38.941407-29.25-18.445312 0-34.039062 12.375-38.945312 29.257813-3.871094 2.742187-7.402344 5.851562-10.558594 9.265625l-47.765625-28.660156v-106.648438h29.863281c-.003906.3125-.015624.621094-.015624.933594-.003907 8.054687 1.421874 15.78125 4.023437 22.949218zm63.394531-150.667968c-21.574218 0-40.144531-13.105469-48.175781-31.773438 5.582031-12.953125 16.417969-23.328125 29.609375-28.339844 5.566406 2.878907 11.878906 4.519532 18.566406 4.519532s13-1.640625 18.566406-4.519532c13.191407 5.011719 24.027344 15.386719 29.609376 28.339844-8.03125 18.667969-26.597657 31.773438-48.175782 31.773438zm52.386719-53.585938c-5.6875-7.027344-12.757813-12.847656-20.84375-17.109375 3.769531-4.660156 6.523437-10.167969 7.9375-16.191406 7.996094 9.148437 12.632813 20.867187 12.90625 33.300781zm-52.386719-68.128906c14.09375 0 25.5625 11.464844 25.5625 25.558594s-11.46875 25.5625-25.5625 25.5625-25.558594-11.46875-25.558594-25.5625 11.464844-25.558594 25.558594-25.558594zm-39.480468 34.824219c1.414062 6.023437 4.167968 11.535156 7.9375 16.195312-8.082032 4.261719-15.152344 10.078125-20.839844 17.109375.273437-12.410156 4.910156-24.148437 12.902344-33.304687zm7.957031 376.5c-8.03125 4.28125-15.144531 10.175781-20.863281 17.222656.242187-12.460937 4.882812-24.25 12.90625-33.441406 1.417968 6.035156 4.179687 11.550781 7.957031 16.21875zm31.523437 70.671875c-21.574218 0-40.140625-13.105469-48.171875-31.773438 5.582031-12.957031 16.414063-23.328125 29.605469-28.339844 5.570312 2.882813 11.878906 4.519532 18.570312 4.519532 6.695313 0 13.011719-1.640625 18.585938-4.527344 13.214844 5.023438 23.992188 15.347656 29.585938 28.351562-8.03125 18.664063-26.597657 31.769532-48.175782 31.769532zm52.390625-53.457032c-5.71875-7.054687-12.820312-12.933593-20.867187-17.214843 3.78125-4.664063 6.542968-10.183594 7.957031-16.21875 8.023437 9.183593 12.664063 20.953125 12.910156 33.433593zm-52.390625-68.257812c14.09375 0 25.5625 11.464844 25.5625 25.558594s-11.46875 25.5625-25.5625 25.5625-25.558594-11.46875-25.558594-25.5625 11.464844-25.558594 25.558594-25.558594zm-187.847656-117.828125c0 .355469-.019531.703125-.027344 1.054687-6.640625-8.695312-15.175781-15.890624-24.929687-20.925781 4.699219-5.558593 8.046875-12.296875 9.519531-19.703125 9.820312 10.683594 15.4375 24.738282 15.4375 39.574219zm-117 0c0-14.835937 5.617188-28.890625 15.4375-39.574219 1.472656 7.40625 4.820312 14.144532 9.519531 19.707032-9.753906 5.035156-18.292969 12.230468-24.933593 20.925781-.007813-.351563-.023438-.703125-.023438-1.058594zm29.585938-48.167969c0-15.941406 12.972656-28.914062 28.914062-28.914062s28.914062 12.972656 28.914062 28.914062-12.972656 28.914063-28.914062 28.914063-28.914062-12.96875-28.914062-28.914063zm183.414062-58.285156c0 1.378906-1.121094 2.5-2.5 2.5h-2.917969v-11.644531l5.417969-3.25zm-2.5-61.5c1.378906 0 2.5 1.121094 2.5 2.5v29.109375l-5.417969 3.253906v-34.863281zm-304 84c-1.378906 0-2.5-1.121094-2.5-2.5v-79c0-1.378906 1.121094-2.5 2.5-2.5h2.917969v84zm0 71c-1.378906 0-2.5-1.121094-2.5-2.5v-19c0-1.378906 1.121094-2.5 2.5-2.5h2.917969v24zm0 62c-1.378906 0-2.5-1.121094-2.5-2.5v-19c0-1.378906 1.121094-2.5 2.5-2.5h2.917969v24zm273.582031 190.5h-243.164062c-6.894531 0-12.5-5.605469-12.5-12.5v-23h268.164062v23c0 6.894531-5.609375 12.5-12.5 12.5zm12.5-50.5h-268.164062v-381h268.164062v67.863281l-94.582031 56.753907c-7.128906-14.636719-22.15625-24.746094-39.5-24.746094-20.0625 0-37.011719 13.527344-42.238281 31.9375-19.597657 13.78125-31.261719 36.15625-31.261719 60.144531 0 8.488281 1.484375 16.859375 4.308594 24.746094.121094.4375.277344.863281.476562 1.273437 2.910156 7.683594 7.089844 14.886719 12.445313 21.253906 1.484375 1.761719 3.605469 2.671876 5.746093 2.671876 1.703126 0 3.414063-.578126 4.820313-1.757813 3.171875-2.667969 3.582031-7.398437.914063-10.570313-3.785157-4.5-6.832032-9.523437-9.09375-14.871093 6.246093-14.726563 18.492187-26.457031 33.476562-32.046875 6.101562 3.214844 13.042969 5.046875 20.40625 5.046875s14.304688-1.832031 20.40625-5.046875c14.988281 5.59375 27.238281 17.328125 33.480469 32.066406-8.894531 20.980469-29.699219 35.734375-53.886719 35.734375-7.167969 0-14.191406-1.292969-20.875-3.847656-3.867188-1.476563-8.203125.460937-9.683594 4.328125-1.476562 3.871094.460938 8.207031 4.328125 9.683594 8.398438 3.210937 17.226563 4.835937 26.230469 4.835937 13.675781 0 26.480469-3.761719 37.460938-10.296875l96.621093 57.980469zm0-85.355469-83.714843-50.234375c8.0625-7.601562 14.410156-16.988281 18.398437-27.535156.132813-.285156.242187-.582031.335937-.882812 2.183594-6.007813 3.585938-12.378907 4.128907-18.992188h60.851562zm112.265625-44.289062c-21.574218 0-40.140625-13.105469-48.171875-31.769531 5.589844-12.980469 16.390625-23.328126 29.59375-28.347657 5.570313 2.882813 11.886719 4.523438 18.578125 4.523438 6.695313 0 13.007813-1.640625 18.578125-4.523438 13.207031 5.019531 24.007813 15.367188 29.597657 28.347657-8.03125 18.664062-26.597657 31.769531-48.175782 31.769531zm52.390625-53.453125c-5.71875-7.050782-12.820312-12.945313-20.859375-17.226563 3.777344-4.667969 6.535156-10.183593 7.953125-16.214843 8.027344 9.171874 12.664063 20.925781 12.90625 33.441406zm-52.390625-68.261719c14.09375 0 25.5625 11.464844 25.5625 25.558594 0 14.097656-11.46875 25.5625-25.5625 25.5625s-25.558594-11.464844-25.558594-25.5625c0-14.09375 11.464844-25.558594 25.558594-25.558594zm-39.480468 34.828125c1.417968 6.027344 4.175781 11.542969 7.949218 16.207031-8.035156 4.28125-15.136718 10.179688-20.855468 17.226563.242187-12.457032 4.882812-24.246094 12.90625-33.433594zm0 0"/></svg>
