<svg viewBox="-9 0 490 490.51974" xmlns="http://www.w3.org/2000/svg" fill="currentColor"><path d="m282.820312 433.070312-39.417968-25.648437c-2.035156-1.324219-4.664063-1.292969-6.667969.082031-2 1.371094-2.976563 3.816406-2.472656 6.191406l5.472656 25.851563c-33.671875 3.25-67.1875-7.566406-92.601563-29.886719-25.417968-22.320312-40.472656-54.15625-41.601562-87.964844-.042969-2.160156-1.25-4.128906-3.152344-5.15625-1.902344-1.023437-4.210937-.945312-6.042968.207032-1.828126 1.152344-2.898438 3.199218-2.796876 5.359375 1.203126 37.367187 17.921876 72.546875 46.140626 97.074219 28.21875 24.527343 65.378906 36.183593 102.550781 32.167968l5.800781 27.40625c.5 2.375 2.386719 4.214844 4.769531 4.65625 2.386719.445313 4.808594-.589844 6.128907-2.625l25.648437-39.414062c1.808594-2.78125 1.019531-6.496094-1.757813-8.300782zm-26.046874 29.03125-3.867188-18.261718v-.027344c-.035156-.238281-.085938-.46875-.148438-.699219l-3.753906-17.734375 22.242188 14.480469zm0 0"/><path d="m406.800781 161.8125c.109375 3.234375 2.757813 5.796875 5.992188 5.800781h.207031c3.3125-.113281 5.90625-2.886719 5.792969-6.199219-1.246094-37.355468-17.976563-72.503906-46.183594-97.027343-28.207031-24.519531-65.347656-36.195313-102.511719-32.226563l-5.796875-27.402344c-.503906-2.375-2.386719-4.210937-4.773437-4.65625-2.386719-.445312-4.804688.59375-6.128906 2.628907l-25.640626 39.410156c-1.808593 2.777344-1.023437 6.492187 1.753907 8.300781l39.414062 25.644532c2.035157 1.324218 4.667969 1.292968 6.667969-.082032 2-1.371094 2.980469-3.816406 2.476562-6.1875l-5.472656-25.855468c33.667969-3.25 67.183594 7.566406 92.601563 29.886718 25.417969 22.320313 40.472656 54.15625 41.597656 87.964844zm-165.714843-118.152344 14.472656-22.246094 3.863281 18.246094v.035156c.035156.238282.089844.476563.152344.707032l3.753906 17.726562zm0 0"/><path d="m446.300781 227.6875h-100c-14.355469.015625-25.984375 11.644531-26 26v210.832031c.015625 14.351563 11.644531 25.984375 26 26h100c14.351563-.015625 25.984375-11.648437 26-26v-210.832031c-.015625-14.355469-11.648437-25.984375-26-26zm-100 12h100c7.726563.007812 13.992188 6.269531 14 14v9h-11.667969c-3.3125 0-6 2.683594-6 6 0 3.3125 2.6875 6 6 6h11.667969v158.097656h-128v-158.097656h70.449219c3.3125 0 6-2.6875 6-6 0-3.316406-2.6875-6-6-6h-70.449219v-9c.007813-7.730469 6.269531-13.992188 14-14zm100 238.832031h-100c-7.730469-.007812-13.992187-6.269531-14-14v-19.734375h128v19.734375c-.011719 7.726563-6.273437 13.992188-14 14zm0 0"/><path d="m421.039062 274.6875h9.015626c3.3125 0 6-2.6875 6-6 0-3.316406-2.6875-6-6-6h-9.015626c-3.316406 0-6 2.683594-6 6 0 3.3125 2.683594 6 6 6zm0 0"/><path d="m396.300781 450.988281c-5.890625-.003906-10.667969 4.773438-10.667969 10.664063s4.773438 10.667968 10.667969 10.667968c5.890625 0 10.664063-4.777343 10.664063-10.667968-.007813-5.886719-4.777344-10.660156-10.664063-10.664063zm0 12c-.738281 0-1.335937-.597656-1.335937-1.335937 0-.734375.597656-1.332032 1.332031-1.332032.738281 0 1.335937.59375 1.335937 1.332032 0 .734375-.597656 1.332031-1.332031 1.335937zm0 0"/><path d="m136.261719 264.117188c54.59375 0 98.855469-44.261719 98.855469-98.859376 0-54.597656-44.257813-98.855468-98.855469-98.855468-54.597657 0-98.859375 44.257812-98.859375 98.855468.0625 54.570313 44.285156 98.796876 98.859375 98.859376zm0-185.714844c47.96875 0 86.855469 38.886718 86.855469 86.855468s-38.886719 86.859376-86.855469 86.859376-86.859375-38.886719-86.859375-86.859376c.054687-47.945312 38.910156-86.800781 86.859375-86.855468zm0 0"/><path d="m40.648438 261.878906c52.925781 52.503906 138.292968 52.503906 191.21875 0 .195312-.140625.382812-.292968.558593-.457031.164063-.175781.316407-.363281.457031-.558594 52.503907-52.929687 52.503907-138.289062 0-191.214843-.265624-.402344-.609374-.75-1.015624-1.015626-52.925782-52.503906-138.289063-52.503906-191.21875 0-.191407.140626-.378907.292969-.554688.453126-.160156.175781-.3125.363281-.453125.554687-52.507813 52.929687-52.507813 138.296875 0 191.222656.265625.402344.609375.746094 1.007813 1.007813zm-28.242188-90.621094h7.359375c3.316406 0 6-2.683593 6-6 0-3.3125-2.683594-6-6-6h-7.359375c1.371094-28.710937 12.714844-56.050781 32.074219-77.300781l5.164062 5.167969c1.507813 1.550781 3.734375 2.167969 5.828125 1.617188 2.089844-.550782 3.722656-2.183594 4.273438-4.277344.550781-2.089844-.066406-4.316406-1.617188-5.824219l-5.164062-5.160156c21.25-19.359375 48.582031-30.703125 77.296875-32.074219v7.359375c0 3.3125 2.683593 6 6 6 3.3125 0 6-2.6875 6-6v-7.359375c28.710937 1.371094 56.046875 12.710938 77.296875 32.070312l-5.164063 5.167969c-2.34375 2.34375-2.339843 6.140625.003907 8.484375 2.339843 2.34375 6.140624 2.34375 8.484374 0l5.164063-5.164062c19.355469 21.246094 30.695313 48.582031 32.066406 77.292968h-7.359375c-3.3125 0-6 2.6875-6 6 0 3.316407 2.6875 6 6 6h7.359375c-1.371093 28.714844-12.710937 56.050782-32.074219 77.300782l-5.160156-5.164063c-2.34375-2.34375-6.144531-2.34375-8.488281 0-2.339844 2.339844-2.34375 6.140625 0 8.484375l5.164063 5.164063c-21.25 19.359375-48.585938 30.703125-77.296876 32.074219v-7.359376c0-3.316406-2.6875-6-6-6-3.316406 0-6 2.683594-6 6v7.359376c-28.714843-1.375-56.046874-12.71875-77.292968-32.078126l5.164062-5.164062c1.550782-1.511719 2.167969-3.734375 1.617188-5.828125-.550782-2.089844-2.183594-3.726563-4.273438-4.273437-2.09375-.550782-4.320312.066406-5.828125 1.617187l-5.164062 5.167969c-19.359375-21.25-30.703125-48.585938-32.074219-77.300782zm0 0"/><path d="m103.761719 221.648438h12.5v10.5c0 3.3125 2.683593 6 6 6 3.3125 0 6-2.6875 6-6v-10.5h11.664062v10.5c0 3.3125 2.6875 6 6 6 3.316407 0 6-2.6875 6-6v-10.617188c12.941407-1.25 22.816407-12.117188 22.835938-25.117188v-11.535156c0-7.410156-3.265625-14.445312-8.925781-19.230468 5.660156-4.785157 8.925781-11.820313 8.925781-19.234376v-11.535156c-.019531-13-9.894531-23.863281-22.835938-25.113281v-11.390625c0-3.316406-2.683593-6-6-6-3.3125 0-6 2.683594-6 6v11.273438h-11.664062v-11.273438c0-3.316406-2.6875-6-6-6-3.316407 0-6 2.683594-6 6v11.273438h-12.5c-3.316407 0-6 2.6875-6 6v100c0 3.3125 2.683593 6 6 6zm59-36.769532v11.535156c-.007813 7.304688-5.929688 13.226563-13.230469 13.234376h-39.769531v-38h39.769531c7.300781.007812 13.21875 5.925781 13.230469 13.230468zm-53-63.230468h39.769531c7.300781.007812 13.21875 5.925781 13.230469 13.230468v11.535156c-.007813 7.304688-5.929688 13.226563-13.230469 13.234376h-39.769531zm0 0"/></svg>
