<svg id="Layer_2" viewBox="0 0 128 128" fill="currentColor" xmlns="http://www.w3.org/2000/svg" data-name="Layer 2"><path d="m122.25 48.92h-5.17v-22.75a7.75 7.75 0 0 0 -7.75-7.75h-101.58a7.757 7.757 0 0 0 -7.75 7.75v75.66a7.757 7.757 0 0 0 7.75 7.75h101.58a7.75 7.75 0 0 0 7.75-7.75v-22.75h5.17a5.757 5.757 0 0 0 5.75-5.75v-18.66a5.757 5.757 0 0 0 -5.75-5.75zm-8.67 43.2h-1.75a1.75 1.75 0 1 0 0 3.5h1.75v6.21a4.246 4.246 0 0 1 -4.25 4.25h-101.58a4.253 4.253 0 0 1 -4.25-4.25v-6.21h1.75a1.75 1.75 0 1 0 0-3.5h-1.75v-56.24h1.75a1.75 1.75 0 1 0 0-3.5h-1.75v-6.21a4.253 4.253 0 0 1 4.25-4.25h101.58a4.247 4.247 0 0 1 4.25 4.25v6.21h-1.75a1.75 1.75 0 1 0 0 3.5h1.75v13.04h-26.91a5.757 5.757 0 0 0 -5.75 5.75v18.66a5.757 5.757 0 0 0 5.75 5.75h26.91zm10.92-18.79a2.253 2.253 0 0 1 -2.25 2.25h-35.58a2.253 2.253 0 0 1 -2.25-2.25v-18.66a2.253 2.253 0 0 1 2.25-2.25h35.58a2.253 2.253 0 0 1 2.25 2.25z"/><path d="m89.042 64a6.958 6.958 0 1 0 6.958-6.958 6.966 6.966 0 0 0 -6.958 6.958zm10.417 0a3.458 3.458 0 1 1 -3.459-3.458 3.462 3.462 0 0 1 3.458 3.458z"/><path d="m26.566 35.875h7.106a1.75 1.75 0 0 0 0-3.5h-7.106a1.75 1.75 0 0 0 0 3.5z"/><path d="m19.461 32.375h-7.106a1.75 1.75 0 0 0 0 3.5h7.105a1.75 1.75 0 0 0 0-3.5z"/><path d="m69.2 35.875h7.106a1.75 1.75 0 0 0 0-3.5h-7.106a1.75 1.75 0 0 0 0 3.5z"/><path d="m54.989 35.875h7.105a1.75 1.75 0 0 0 0-3.5h-7.105a1.75 1.75 0 0 0 0 3.5z"/><path d="m90.517 35.875a1.75 1.75 0 0 0 0-3.5h-7.106a1.75 1.75 0 0 0 0 3.5z"/><path d="m104.728 35.875a1.75 1.75 0 0 0 0-3.5h-7.106a1.75 1.75 0 0 0 0 3.5z"/><path d="m40.778 35.875h7.105a1.75 1.75 0 0 0 0-3.5h-7.105a1.75 1.75 0 0 0 0 3.5z"/><path d="m40.778 95.625h7.105a1.75 1.75 0 1 0 0-3.5h-7.105a1.75 1.75 0 0 0 0 3.5z"/><path d="m26.566 95.625h7.106a1.75 1.75 0 0 0 0-3.5h-7.106a1.75 1.75 0 0 0 0 3.5z"/><path d="m54.989 95.625h7.105a1.75 1.75 0 1 0 0-3.5h-7.105a1.75 1.75 0 0 0 0 3.5z"/><path d="m19.461 92.125h-7.106a1.75 1.75 0 0 0 0 3.5h7.105a1.75 1.75 0 0 0 0-3.5z"/><path d="m69.2 95.625h7.106a1.75 1.75 0 0 0 0-3.5h-7.106a1.75 1.75 0 0 0 0 3.5z"/><path d="m90.517 95.625a1.75 1.75 0 0 0 0-3.5h-7.106a1.75 1.75 0 0 0 0 3.5z"/><path d="m104.728 95.625a1.75 1.75 0 0 0 0-3.5h-7.106a1.75 1.75 0 0 0 0 3.5z"/></svg>
